PathFileType	4	(X/Y/Z)	C:/Users/opensim2020/Desktop/walking_exp_matlab/subject03_walking13_straight_01.trc	
DataRate	CameraRate	NumFrames	NumMarkers	Units	OrigDataRate	OrigDataStartFrame	OrigNumFrames	
100.00	100.00	4	46	mm	100.00	661	185	
Frame#	Time	LFHD			RFHD			LBHD			RBHD			C7			T10			CLAV			STRN			RBAK			LSHO			LUPA			LELB			LFRM			LWRA			LWRB			LFIN			RSHO			RUPA			RELB			RFRM			RWRA			RWRB			RFIN			LASI			RASI			LPSI			RPSI			LTHI			LKNE			LTIB			LANK			LHEE			LTOE			RTHI			RKNE			RTIB			RANK			RHEE			RTOE			*39			*40			*41			*42			*43			*44			*45			
		X1	Y1	Z1	X2	Y2	Z2	X3	Y3	Z3	X4	Y4	Z4	X5	Y5	Z5	X6	Y6	Z6	X7	Y7	Z7	X8	Y8	Z8	X9	Y9	Z9	X10	Y10	Z10	X11	Y11	Z11	X12	Y12	Z12	X13	Y13	Z13	X14	Y14	Z14	X15	Y15	Z15	X16	Y16	Z16	X17	Y17	Z17	X18	Y18	Z18	X19	Y19	Z19	X20	Y20	Z20	X21	Y21	Z21	X22	Y22	Z22	X23	Y23	Z23	X24	Y24	Z24	X25	Y25	Z25	X26	Y26	Z26	X27	Y27	Z27	X28	Y28	Z28	X29	Y29	Z29	X30	Y30	Z30	X31	Y31	Z31	X32	Y32	Z32	X33	Y33	Z33	X34	Y34	Z34	X35	Y35	Z35	X36	Y36	Z36	X37	Y37	Z37	X38	Y38	Z38	X39	Y39	Z39	X40	Y40	Z40	X41	Y41	Z41	X42	Y42	Z42	X43	Y43	Z43	X44	Y44	Z44	X45	Y45	Z45	X46	Y46	Z46	

116	1.150	-1064.84583	154.11021	1618.95190	-933.50598	130.74965	1624.91858	-1079.66199	36.02879	1555.45532	-950.13586	18.15321	1561.31982	-1018.11273	18.05069	1401.85107	-1008.24213	-8.69953	1091.67505	-1001.10626	143.55225	1332.09277	-998.63995	193.67964	1167.20728	-922.31232	-36.89490	1228.28870	-1161.19946	110.10252	1366.45520	-1230.60413	82.14101	1169.11829	-1242.88123	68.30392	1046.83655	-1246.43176	60.94654	915.60321	-1221.72583	39.79831	795.91321	-1276.22681	29.62719	808.86456	-1266.34082	-9.49580	726.65424	-851.36224	72.09188	1366.31421	-771.16852	104.32666	1152.85278	-755.13983	148.89366	1049.75391	-751.65656	216.21956	931.04565	-781.63257	288.13998	861.96088	-747.09839	255.16241	838.14325	-748.34174	310.73547	792.11237	-1116.13525	161.88501	935.50549	-882.24005	139.93788	917.57184	-1082.63403	-5.58532	956.17694	-932.78107	-14.45699	952.31317	-1169.35071	154.87621	635.22125	-1122.85913	200.70697	466.55844	-1123.92224	153.21671	270.92258	-1077.67212	122.87650	65.53772	-1043.28613	78.63980	32.52165	-1048.58936	271.88422	30.35728	-842.02130	87.97157	617.85779	-862.32227	116.19595	438.77029	-864.79700	-37.18403	326.99329	-910.99359	-214.28709	207.61006	-965.92700	-261.45673	224.86656	-929.44965	-176.45477	69.09906																					 
117	1.160	-1064.25354	168.21039	1620.89746	-933.06604	144.73784	1626.76855	-1079.46838	49.93993	1557.96497	-949.97882	31.86014	1563.68835	-1018.49500	31.68975	1403.96094	-1008.74231	4.99027	1093.57422	-1000.73413	156.78928	1334.18359	-997.96375	207.04321	1169.35657	-923.84192	-23.86474	1229.82275	-1160.74133	124.59864	1368.08655	-1230.09656	100.67190	1170.29236	-1242.65393	88.66752	1048.00940	-1245.94604	83.82970	916.65857	-1221.00977	64.84367	796.74152	-1275.92908	55.05244	809.31311	-1266.39453	19.54375	725.59332	-851.23602	84.26880	1367.92078	-771.90973	115.32175	1153.81445	-756.20093	159.29913	1050.18530	-752.77844	224.55440	930.21393	-782.83679	294.92844	859.34894	-748.03400	261.72739	836.50824	-749.92554	315.77777	788.54285	-1116.76306	175.39845	937.00061	-882.32568	153.67392	919.40503	-1082.83130	8.16225	958.31592	-933.17163	-0.57780	954.26428	-1169.48206	164.28055	636.01147	-1122.67126	205.53055	466.14584	-1124.00452	155.33577	270.94681	-1077.86731	122.92760	65.67764	-1043.29883	78.55173	32.74416	-1048.54358	271.79395	30.16364	-843.30139	109.32614	620.19110	-863.28076	143.05386	442.41730	-865.53619	-8.77982	328.82458	-911.96216	-184.66461	207.08075	-966.61243	-233.09264	222.58551	-929.99915	-141.42255	70.62910																					 
118	1.170	-1063.59705	182.24171	1622.66650	-932.60431	158.63037	1628.58655	-1079.21301	63.86395	1560.39160	-949.77386	45.54820	1565.98450	-1018.62585	45.23448	1406.03845	-1009.43304	18.70199	1095.46936	-1000.34174	170.03395	1336.24219	-997.48175	220.50647	1171.51892	-925.12634	-10.93412	1231.46179	-1160.44629	138.79155	1369.90027	-1229.64282	119.16212	1171.79346	-1242.13525	109.25832	1049.24597	-1245.12024	106.96794	917.74268	-1220.05627	90.25747	797.75006	-1275.23315	81.06963	809.85699	-1266.86292	50.38921	725.32898	-851.10004	96.42008	1369.56653	-772.57898	126.12239	1154.74048	-757.15729	169.37440	1050.60278	-753.75360	232.42007	929.33942	-784.46619	300.96252	856.57019	-748.89124	267.71585	834.86877	-751.57825	320.25058	784.98553	-1117.57361	188.81189	938.41101	-882.76617	167.72829	921.67267	-1083.24353	22.29308	959.87183	-933.48010	13.21973	956.50427	-1169.31299	173.70404	636.78564	-1122.70081	209.95302	465.40799	-1124.02332	157.06868	271.04333	-1077.92065	123.05525	65.90105	-1043.34058	78.47279	33.07984	-1048.50391	271.82492	30.05676	-844.54724	131.24176	622.74347	-864.45886	169.59264	446.32419	-866.54675	19.69447	330.36588	-912.88672	-153.96826	204.77055	-967.15253	-203.82755	218.18961	-930.63666	-104.31805	71.08228																					 
119	1.180	-1063.12231	196.45309	1624.46606	-932.02698	172.53383	1630.25891	-1078.88062	77.72366	1562.68140	-949.50793	59.28157	1568.20044	-1018.63763	58.68676	1407.92615	-1010.32025	32.45809	1097.22180	-999.94958	183.24538	1338.20190	-997.14160	233.95996	1173.57935	-926.18414	2.02993	1233.07153	-1160.11707	152.69794	1371.70813	-1229.07178	137.45406	1173.29871	-1241.52429	129.95917	1050.62402	-1244.30261	130.90280	919.55835	-1219.48889	116.82310	798.96204	-1274.29248	107.63705	810.62042	-1265.97339	80.78288	724.47406	-851.02209	108.76894	1371.09375	-773.13757	136.75394	1155.55469	-757.99652	179.16089	1050.96716	-754.62579	239.78876	928.45233	-785.30359	307.12900	854.27448	-749.66296	273.25076	833.27795	-753.24518	324.42050	781.40149	-1118.41895	202.16202	939.65234	-883.33124	181.81476	924.21954	-1083.42090	35.95949	961.60583	-933.79999	26.98401	958.78961	-1168.94519	183.13637	637.47437	-1122.02356	214.08548	465.16959	-1123.93518	158.60820	271.25262	-1077.94275	123.16561	66.10896	-1043.38086	78.36445	33.46460	-1048.47314	271.91086	30.01484	-845.52789	152.86003	625.42828	-865.80194	195.59047	450.31705	-867.75964	48.00029	331.26898	-913.59351	-122.13483	200.73735	-967.63959	-173.45091	211.77580	-930.60352	-64.87875	71.07893																					 
